<svg width="50" height="50" viewBox="0 0 50 50" fill="none" xmlns="http://www.w3.org/2000/svg">
<g clip-path="url(#clip0_11657_1936)">
<path d="M25 0C11.1942 0 0 11.1942 0 25C0 38.8058 11.1942 50 25 50C38.8058 50 50 38.8058 50 25C50 11.1942 38.8058 0 25 0ZM37.0145 18.8449C37.0312 19.1071 37.0312 19.3806 37.0312 19.6484C37.0312 27.8404 30.7924 37.2768 19.3917 37.2768C15.8761 37.2768 12.6172 36.2556 9.87165 34.4978C10.3739 34.5536 10.8538 34.5759 11.3672 34.5759C14.269 34.5759 16.9364 33.5938 19.0625 31.9308C16.3393 31.875 14.0513 30.0893 13.2701 27.6339C14.2243 27.7734 15.0837 27.7734 16.0658 27.5223C14.6637 27.2374 13.4033 26.4759 12.499 25.3671C11.5946 24.2583 11.102 22.8706 11.1049 21.4397V21.3616C11.9252 21.8248 12.8906 22.1094 13.9007 22.1484C13.0516 21.5826 12.3552 20.8159 11.8734 19.9165C11.3915 19.017 11.1391 18.0126 11.1384 16.9922C11.1384 15.8371 11.4397 14.7824 11.981 13.8672C13.5374 15.7831 15.4795 17.3501 17.6812 18.4663C19.8828 19.5825 22.2947 20.223 24.76 20.346C23.8839 16.1328 27.0312 12.7232 30.8147 12.7232C32.6004 12.7232 34.2076 13.471 35.3404 14.6763C36.7411 14.4141 38.0804 13.8895 39.2746 13.1864C38.8114 14.6205 37.8404 15.8315 36.5513 16.596C37.8013 16.4621 39.0067 16.1161 40.1228 15.6306C39.2801 16.8694 38.2254 17.9688 37.0145 18.8449Z" fill="#222222"/>
</g>
<defs>
<clipPath id="clip0_11657_1936">
<rect width="50" height="50" fill="white"/>
</clipPath>
</defs>
</svg>
