<svg width="151" height="30" viewBox="0 0 151 30" fill="none" xmlns="http://www.w3.org/2000/svg">
<path d="M13.4565 3.63397C14.1902 2.14748 16.3098 2.14748 17.0435 3.63397L19.1931 7.98949C19.4844 8.57978 20.0475 8.98891 20.6989 9.08357L25.5055 9.78201C27.146 10.0204 27.801 12.0363 26.6139 13.1934L23.1359 16.5837C22.6645 17.0432 22.4494 17.7052 22.5607 18.354L23.3817 23.1411C23.662 24.7749 21.9471 26.0209 20.4798 25.2495L16.1807 22.9893C15.598 22.683 14.902 22.683 14.3193 22.9893L10.0202 25.2495C8.55291 26.0209 6.83805 24.7749 7.11827 23.1411L7.93933 18.354C8.05061 17.7052 7.83551 17.0432 7.36414 16.5837L3.88605 13.1934C2.69902 12.0363 3.35404 10.0204 4.99448 9.78201L9.80107 9.08357C10.4525 8.98891 11.0156 8.57978 11.307 7.98949L13.4565 3.63397Z" fill="#FBA457"/>
<path d="M43.4565 3.63397C44.1902 2.14748 46.3098 2.14748 47.0435 3.63397L49.1931 7.98949C49.4844 8.57978 50.0475 8.98891 50.6989 9.08357L55.5055 9.78201C57.146 10.0204 57.801 12.0363 56.6139 13.1934L53.1359 16.5837C52.6645 17.0432 52.4494 17.7052 52.5607 18.354L53.3817 23.1411C53.662 24.7749 51.9471 26.0209 50.4798 25.2495L46.1807 22.9893C45.598 22.683 44.902 22.683 44.3193 22.9893L40.0202 25.2495C38.5529 26.0209 36.838 24.7749 37.1183 23.1411L37.9393 18.354C38.0506 17.7052 37.8355 17.0432 37.3641 16.5837L33.8861 13.1934C32.699 12.0363 33.354 10.0204 34.9945 9.78201L39.8011 9.08357C40.4525 8.98891 41.0156 8.57978 41.307 7.98949L43.4565 3.63397Z" fill="#FBA457"/>
<path d="M73.4565 3.63397C74.1902 2.14748 76.3098 2.14748 77.0435 3.63397L79.1931 7.98949C79.4844 8.57978 80.0475 8.98891 80.6989 9.08357L85.5055 9.78201C87.146 10.0204 87.801 12.0363 86.6139 13.1934L83.1359 16.5837C82.6645 17.0432 82.4494 17.7052 82.5607 18.354L83.3817 23.1411C83.662 24.7749 81.9471 26.0209 80.4798 25.2495L76.1807 22.9893C75.598 22.683 74.902 22.683 74.3193 22.9893L70.0202 25.2495C68.5529 26.0209 66.838 24.7749 67.1183 23.1411L67.9393 18.354C68.0506 17.7052 67.8355 17.0432 67.3641 16.5837L63.8861 13.1934C62.699 12.0363 63.354 10.0204 64.9945 9.78201L69.8011 9.08357C70.4525 8.98891 71.0156 8.57978 71.307 7.98949L73.4565 3.63397Z" fill="#FBA457"/>
<path d="M103.457 3.63397C104.19 2.14748 106.31 2.14748 107.043 3.63397L109.193 7.98949C109.484 8.57978 110.048 8.98891 110.699 9.08357L115.506 9.78201C117.146 10.0204 117.801 12.0363 116.614 13.1934L113.136 16.5837C112.664 17.0432 112.449 17.7052 112.561 18.354L113.382 23.1411C113.662 24.7749 111.947 26.0209 110.48 25.2495L106.181 22.9893C105.598 22.683 104.902 22.683 104.319 22.9893L100.02 25.2495C98.5529 26.0209 96.838 24.7749 97.1183 23.1411L97.9393 18.354C98.0506 17.7052 97.8355 17.0432 97.3641 16.5837L93.8861 13.1934C92.699 12.0363 93.354 10.0204 94.9945 9.78201L99.8011 9.08357C100.452 8.98891 101.016 8.57978 101.307 7.98949L103.457 3.63397Z" fill="#FBA457"/>
<path d="M133.457 3.63397C134.19 2.14748 136.31 2.14748 137.043 3.63397L139.193 7.98949C139.484 8.57978 140.048 8.98891 140.699 9.08357L145.506 9.78201C147.146 10.0204 147.801 12.0363 146.614 13.1934L143.136 16.5837C142.664 17.0432 142.449 17.7052 142.561 18.354L143.382 23.1411C143.662 24.7749 141.947 26.0209 140.48 25.2495L136.181 22.9893C135.598 22.683 134.902 22.683 134.319 22.9893L130.02 25.2495C128.553 26.0209 126.838 24.7749 127.118 23.1411L127.939 18.354C128.051 17.7052 127.836 17.0432 127.364 16.5837L123.886 13.1934C122.699 12.0363 123.354 10.0204 124.994 9.78201L129.801 9.08357C130.452 8.98891 131.016 8.57978 131.307 7.98949L133.457 3.63397Z" fill="#B0AAD0"/>
<mask id="mask0_181_2222" style="mask-type:alpha" maskUnits="userSpaceOnUse" x="120" y="0" width="16" height="28">
<rect x="120.25" width="15" height="28" fill="#FBA457"/>
</mask>
<g mask="url(#mask0_181_2222)">
<path d="M133.457 3.63397C134.19 2.14748 136.31 2.14748 137.043 3.63397L139.193 7.98949C139.484 8.57978 140.048 8.98891 140.699 9.08357L145.506 9.78201C147.146 10.0204 147.801 12.0363 146.614 13.1934L143.136 16.5837C142.664 17.0432 142.449 17.7052 142.561 18.354L143.382 23.1411C143.662 24.7749 141.947 26.0209 140.48 25.2495L136.181 22.9893C135.598 22.683 134.902 22.683 134.319 22.9893L130.02 25.2495C128.553 26.0209 126.838 24.7749 127.118 23.1411L127.939 18.354C128.051 17.7052 127.836 17.0432 127.364 16.5837L123.886 13.1934C122.699 12.0363 123.354 10.0204 124.994 9.78201L129.801 9.08357C130.452 8.98891 131.016 8.57978 131.307 7.98949L133.457 3.63397Z" fill="#FBA457"/>
</g>
</svg>
